<?xml version="1.0" encoding="utf-8"?><svg viewBox="0 0 100 100" xmlns="http://www.w3.org/2000/svg" width="300px" height="300px" xmlns:xlink="http://www.w3.org/1999/xlink" style="width:100%;height:100%;background-color:rgb(255, 255, 255);animation-play-state:paused" ><g class="ldl-scale" style="transform-origin:50% 50% 0px;transform:rotate(0deg) scale(0.8);animation-play-state:paused" ><path fill="#e15b64" d="M51.973 15.739V5L37.262 19.715l14.711 14.718V23.836C65.526 24.849 76.246 36.192 76.246 50c0 9.334-5.031 18.043-13.128 22.728l4.045 6.99C77.746 73.594 84.322 62.207 84.322 50c0-18.262-14.339-33.235-32.349-34.261z" style="fill:rgb(39, 39, 91);animation-play-state:paused" ></path>
<path fill="#77a4bd" d="M62.738 80.285L48.027 65.567v10.598C34.474 75.151 23.754 63.808 23.754 50c0-9.334 5.031-18.043 13.128-22.728l-4.045-6.99C22.254 26.406 15.678 37.793 15.678 50c0 18.262 14.339 33.235 32.349 34.261V95l14.711-14.715z" style="fill:rgb(255, 129, 0);animation-play-state:paused" ></path>
<metadata xmlns:d="https://loading.io/stock/" style="animation-play-state:paused" ><d:name style="animation-play-state:paused" >recycle</d:name>


<d:tags style="animation-play-state:paused" >recycle,refresh,reload,circulation,sync,mutual</d:tags>


<d:license style="animation-play-state:paused" >by</d:license>


<d:slug style="animation-play-state:paused" >5y9jsw</d:slug></metadata></g><!-- generated by https://loading.io/ --></svg>